<svg height="512" viewBox="0 0 64 64" width="512" xmlns="http://www.w3.org/2000/svg"><g id="target-goals-woman-human-costomer"><circle cx="32" cy="32" fill="#46f8ff" r="27"/><path d="m59 32a26.991 26.991 0 0 1 -48.42 16.42 26.987 26.987 0 0 0 43.42-21.42 26.768 26.768 0 0 0 -5.58-16.42 26.919 26.919 0 0 1 10.58 21.42z" fill="#00d7df"/><path d="m41 22v18l-.08.19h-17.84l-.08-.19v-18a5.857 5.857 0 0 1 .81-3 5.985 5.985 0 0 1 5.19-3h6a5.985 5.985 0 0 1 5.19 3 5.857 5.857 0 0 1 .81 3z" fill="#57565c"/><path d="m41 22v18l-.08.19h-3l.08-.19v-18a5.857 5.857 0 0 0 -.81-3 5.985 5.985 0 0 0 -5.19-3h3a5.985 5.985 0 0 1 5.19 3 5.857 5.857 0 0 1 .81 3z" fill="#3e3d42"/><path d="m45 42v6h-26v-6l9-4h8z" fill="#ff7956"/><path d="m45 42v6h-4v-6l-6.23-2.77 1.23-1.23z" fill="#ff5023"/><path d="m38 23v6a6 6 0 1 1 -12 0v-6l9-2z" fill="#ffdaaa"/><path d="m38 23v6a5.994 5.994 0 0 1 -6 6 5.715 5.715 0 0 1 -1.5-.2 4.8 4.8 0 0 0 .76-.24 6.009 6.009 0 0 0 3.74-5.56v-6l-2.25-1.5 2.25-.5z" fill="#ffb655"/><path d="m34.26 34.56.74 4.44-3 3-3-3 .74-4.44a6.024 6.024 0 0 0 4.52 0z" fill="#ffdaaa"/><path d="m35 34.19v2a5.961 5.961 0 0 1 -6 0v-2a5.961 5.961 0 0 0 6 0z" fill="#ffb655"/><path d="m59.97 31a27.858 27.858 0 0 0 -7.49-18.07l1.44-1.44-1.41-1.41-1.44 1.44a27.858 27.858 0 0 0 -18.07-7.49v-2.03h-2v2.03a27.858 27.858 0 0 0 -18.07 7.49l-1.44-1.44-1.41 1.41 1.44 1.44a27.858 27.858 0 0 0 -7.49 18.07h-2.03v2h2.03a27.858 27.858 0 0 0 7.49 18.07l-1.44 1.44 1.41 1.41 1.44-1.44a27.858 27.858 0 0 0 18.07 7.49v2.03h2v-2.03a27.858 27.858 0 0 0 18.07-7.49l1.44 1.44 1.41-1.41-1.44-1.44a27.858 27.858 0 0 0 7.49-18.07h2.03v-2zm-2 2a25.885 25.885 0 0 1 -6.9 16.65l-1.39-1.39-1.42 1.42 1.39 1.39a25.885 25.885 0 0 1 -16.65 6.9v-1.97h-2v1.97a25.885 25.885 0 0 1 -16.65-6.9l1.39-1.39-1.42-1.42-1.39 1.39a25.885 25.885 0 0 1 -6.9-16.65h1.97v-2h-1.97a25.885 25.885 0 0 1 6.9-16.65l1.39 1.39 1.42-1.42-1.39-1.39a25.885 25.885 0 0 1 16.65-6.9v1.97h2v-1.97a25.885 25.885 0 0 1 16.65 6.9l-1.39 1.39 1.42 1.42 1.39-1.39a25.885 25.885 0 0 1 6.9 16.65h-1.97v2z"/><path d="m4 4h7v-2h-8a1 1 0 0 0 -1 1v8h2z"/><path d="m61 2h-8v2h7v7h2v-8a1 1 0 0 0 -1-1z"/><path d="m4 53h-2v8a1 1 0 0 0 1 1h8v-2h-7z"/><path d="m60 60h-7v2h8a1 1 0 0 0 1-1v-8h-2z"/><path d="m45.41 41.09-3.41-1.52v-17.57a7.008 7.008 0 0 0 -7-7h-6a7.008 7.008 0 0 0 -7 7v17.57l-3.41 1.52a.987.987 0 0 0 -.59.91v6a1 1 0 0 0 1 1h26a1 1 0 0 0 1-1v-6a.987.987 0 0 0 -.59-.91zm-21.41-19.09a5 5 0 0 1 5-5h6a5 5 0 0 1 5 5v16.68l-3.59-1.59a.949.949 0 0 0 -.72-.03l-.32-1.93a7 7 0 0 0 3.63-6.13v-6a1 1 0 0 0 -.45-.83l-3-2a1.035 1.035 0 0 0 -.77-.15l-9 2a1.015 1.015 0 0 0 -.78.98v6a7 7 0 0 0 3.63 6.13l-.32 1.93a.949.949 0 0 0 -.72.03l-3.59 1.59zm8 12a5 5 0 0 1 -5-5v-5.2l7.8-1.73 2.2 1.47v5.46a5 5 0 0 1 -5 5zm1.93 4.66-1.93 1.93-1.93-1.93.47-2.82a6.741 6.741 0 0 0 2.92 0zm10.07 8.34h-24v-4.35l7.78-3.46 3.51 3.52a1.008 1.008 0 0 0 1.42 0l3.51-3.52 7.78 3.46z"/><path d="m33 26h2v2h-2z"/><path d="m29 26h2v2h-2z"/></g></svg>