<svg width="80" height="80" viewBox="0 0 1088 1088" fill="none" xmlns="http://www.w3.org/2000/svg">
<rect width="1088" height="1088" fill="#C2FBFF"/>
<path d="M1015 332.166L432.876 332.389L441.115 240H272.491V304.423H321.936H370.691L368.016 334.441L354.133 490.155H74V554.577H348.391L344.146 602.195H216.254V666.617H338.402L335.756 696.297H884.727L1015 332.166ZM406.178 631.876L413.069 554.578H465.791V490.156H418.813L427.134 396.814L923.519 396.624L839.354 631.876H406.178V631.876Z" fill="#0C3763"/>
<path d="M695.429 889.853C712.017 909.504 737.102 920.775 764.254 920.775C817.465 920.775 866.219 879.262 875.245 826.267C879.908 798.891 872.946 771.773 856.144 751.866C839.556 732.215 814.471 720.944 787.319 720.944H416.195C362.984 720.944 314.23 762.457 305.204 815.451C300.541 842.829 307.503 869.948 324.306 889.854C340.893 909.505 365.978 920.776 393.13 920.776C446.341 920.776 495.094 879.263 504.12 826.268C506.507 812.255 505.84 798.312 502.375 785.366H686.184C681.506 794.78 678.124 804.886 676.324 815.45C671.664 842.828 678.626 869.946 695.429 889.853ZM435.79 793.418C440.392 798.87 442.106 806.695 440.614 815.449C436.902 837.238 414.713 856.354 393.131 856.354C384.759 856.354 377.982 853.568 373.535 848.301C368.933 842.849 367.22 835.024 368.712 826.268C372.423 804.481 394.612 785.366 416.195 785.366C424.567 785.365 431.343 788.15 435.79 793.418ZM806.914 793.418C811.516 798.87 813.229 806.695 811.737 815.449C808.026 837.238 785.837 856.354 764.254 856.354C755.881 856.354 749.106 853.568 744.659 848.301C740.056 842.849 738.344 835.024 739.835 826.268C743.547 804.481 765.735 785.366 787.319 785.366C795.691 785.365 802.467 788.15 806.914 793.418Z" fill="#366796"/>
<path d="M325.426 382.348H152.25V446.771H325.426V382.348Z" fill="#5488A8"/>
</svg>
