<svg id="filled_outline" height="512" viewBox="0 0 512 512" width="512" xmlns="http://www.w3.org/2000/svg" data-name="filled outline"><rect fill="#d1e4ff" height="440" rx="16" width="336" x="88" y="48"/><path d="m168 120v-24l56-24v-16a32 32 0 0 1 32-32 32 32 0 0 1 32 32v16l56 24v24z" fill="#ffc431"/><path d="m104 496h304a24.0275 24.0275 0 0 0 24-24v-408a24.0275 24.0275 0 0 0 -24-24h-115.3501a39.98365 39.98365 0 0 0 -73.2998 0h-115.3501a24.0275 24.0275 0 0 0 -24 24v408a24.0275 24.0275 0 0 0 24 24zm128-424v-16a24 24 0 0 1 48 0v16a7.99956 7.99956 0 0 0 4.84863 7.353l51.15137 21.92239v10.72461h-160v-10.72461l51.15137-21.92239a7.99956 7.99956 0 0 0 4.84863-7.353zm-136-8a8.00917 8.00917 0 0 1 8-8h112v10.72461l-51.15137 21.92239a7.99956 7.99956 0 0 0 -4.84863 7.353v24a8.00008 8.00008 0 0 0 8 8h176a8.00008 8.00008 0 0 0 8-8v-24a7.99956 7.99956 0 0 0 -4.84863-7.353l-51.15137-21.92239v-10.72461h112a8.00917 8.00917 0 0 1 8 8v408a8.00917 8.00917 0 0 1 -8 8h-304a8.00917 8.00917 0 0 1 -8-8z"/><circle cx="256" cy="56" r="8"/><path d="m128 232h64a8.00008 8.00008 0 0 0 8-8v-32h-16v24h-48v-48h39.35547l-16.01856 20.023-9.67968-9.67969-11.31446 11.31348 16 16a8.00036 8.00036 0 0 0 11.9043-.65918l32-40a8.00046 8.00046 0 0 0 -6.24707-12.99761h-64a8.00008 8.00008 0 0 0 -8 8v64a8.00008 8.00008 0 0 0 8 8z"/><path d="m216 192h16v16h-16z"/><path d="m368 192h24v16h-24z"/><path d="m248 192h104v16h-104z"/><path d="m128 336h64a8.00008 8.00008 0 0 0 8-8v-32h-16v24h-48v-48h39.35547l-16.01856 20.023-9.67968-9.67969-11.31446 11.31348 16 16a8.00036 8.00036 0 0 0 11.9043-.65918l32-40a8.00046 8.00046 0 0 0 -6.24707-12.99761h-64a8.00008 8.00008 0 0 0 -8 8v64a8.00008 8.00008 0 0 0 8 8z"/><path d="m216 296h56v16h-56z"/><path d="m288 296h104v16h-104z"/><path d="m128 440h64a8.00008 8.00008 0 0 0 8-8v-32h-16v24h-48v-48h39.35547l-16.01856 20.023-9.67968-9.67969-11.31446 11.31348 16 16a8.00036 8.00036 0 0 0 11.9043-.65918l32-40a8.00046 8.00046 0 0 0 -6.24707-12.99761h-64a8.00008 8.00008 0 0 0 -8 8v64a8.00008 8.00008 0 0 0 8 8z"/><path d="m216 400h24v16h-24z"/><path d="m312 400h80v16h-80z"/><path d="m256 400h40v16h-40z"/><path d="m216 160h32v16h-32z"/><path d="m264 160h64v16h-64z"/><path d="m216 264h32v16h-32z"/><path d="m264 264h64v16h-64z"/><path d="m216 368h32v16h-32z"/><path d="m264 368h64v16h-64z"/></svg>